<?xml version="1.0" encoding="utf-8"?>
<!-- Generator: Adobe Illustrator 26.0.0, SVG Export Plug-In . SVG Version: 6.00 Build 0)  -->
<svg version="1.1" id="Layer_1" xmlns="http://www.w3.org/2000/svg" xmlns:xlink="http://www.w3.org/1999/xlink" x="0px" y="0px"
	 viewBox="0 0 402 92" style="enable-background:new 0 0 402 92;" xml:space="preserve">
<style type="text/css">
	.st0{fill:#FFFFFF;}
</style>
<g>
	<g>
		<path class="st0" d="M16.9,14.7c0-3.7-0.1-4.9-0.1-7.3c-0.1-3-0.9-3.5-5.1-3.5c-0.6,0-0.6-0.4-0.6-0.9c0-0.3,0.1-0.7,0.5-0.7
			s4.9,0.2,8.1,0.2c6,0,13.6-0.2,17.3-0.2c1.2,0,1.9,0,2,0.4c1.3,4.7,2.3,7,2.3,7.3s-0.3,0.4-0.8,0.4c-0.8,0-1.2-1.5-5.8-5.3
			c-0.8-0.7-2-1.2-3.6-1.2c-1.3,0-5.8,0.2-7.7,0.3c-1.2,0.1-1.5,1.1-1.5,4v12.2h3.5c5.6,0,6-2.3,6.1-2.8c0.6-3.8,0.8-3.8,1.1-3.8
			c0.6,0,1,0.1,1,0.4v7.7c0,3.1,0.3,4.8,0.3,6.1c0,0.4-0.4,0.4-0.7,0.4c-0.6,0-0.7-0.2-0.8-0.6c-0.8-5.6-1.7-5.9-6.7-5.9H22v5.4
			c0,2.2,0.1,5.6,0.2,8.1c0.1,1.4,0.4,2.3,4.4,2.3c2,0,2,0.3,2,0.9c0,0.5,0,0.7-0.9,0.7c-0.4,0-0.6-0.1-8.2-0.1
			c-7.2,0-7.4,0.1-7.8,0.1c-0.4,0-0.4-0.2-0.4-0.7c0-0.6,0-0.9,1.1-0.9c4.1,0,4.4-0.9,4.4-2.3c0.1-2.6,0.2-5.9,0.2-8.1L16.9,14.7
			L16.9,14.7z"/>
	</g>
	<g>
		<path class="st0" d="M50.7,29.6c0,5.6,2.2,7.7,6.1,7.7c5.2,0,7.1-4.6,7.1-14.8c0-4.6-0.4-5.1-2.3-5.3l-0.8-0.1
			c-0.3-0.1-0.5-0.1-0.5-0.7c0-0.5,0.1-0.6,0.5-0.6c1.2,0,2.6,0.1,4.1,0.1c1.5,0,2.8-0.1,4.1-0.1c0.5,0,0.5,0.2,0.5,0.6
			c0,0.6-0.1,0.7-0.3,0.7l-1.6,0.2c-1.7,0.2-2.1,2-2.4,10.9C65,34,62.4,39.8,55.1,39.8c-5.9,0-8.6-4.2-8.6-9.8V20
			c0-2.1-0.4-2.5-1.7-2.7l-1.5-0.2C43,17,42.8,17,42.8,16.5c0-0.3,0.1-0.6,0.4-0.6c0.7,0,2.8,0.1,5.4,0.1c3,0,5.1-0.1,5.8-0.1
			c0.3,0,0.4,0.4,0.4,0.6c0,0.5-0.2,0.6-0.5,0.6l-1.6,0.2c-1.7,0.2-2.1,0.6-2.1,2.8L50.7,29.6L50.7,29.6z"/>
	</g>
	<g>
		<path class="st0" d="M75.8,20c0-2-0.4-2.7-1.4-2.8L72.3,17c-0.5-0.1-0.7-0.2-0.7-0.6c0-0.3,0.1-0.6,0.4-0.6c0.7,0,2.8,0.1,5.8,0.1
			s5.1-0.1,5.8-0.1c0.3,0,0.4,0.4,0.4,0.6c0,0.5-0.2,0.6-0.7,0.6l-2.2,0.2c-0.9,0.1-1.3,0.8-1.3,2.8v13.3c0,4.3,0.6,4.5,3.6,4.5
			c4.4,0,5.5-0.9,6.6-2.8l1.1-2c0.4-0.7,0.5-0.8,0.6-0.8c0.2,0,0.6,0.1,0.9,0.1c0.2,0.1,0.2,0.1,0.2,0.2s-0.3,1.2-0.4,1.8l-0.9,3.9
			c-0.3,1.1-0.3,1.2-0.7,1.2c-2.9,0-6.6-0.1-9.8-0.1c-3,0-6,0.1-9,0.1c-0.3,0-0.4-0.4-0.4-0.6c0-0.5,0.2-0.5,0.7-0.6l2.2-0.2
			c0.9-0.1,1.3-0.8,1.3-2.8V20L75.8,20z"/>
	</g>
	<g>
		<path class="st0" d="M99.6,20c0-2-0.4-2.7-1.4-2.8L96.1,17c-0.5-0.1-0.7-0.2-0.7-0.6c0-0.3,0.1-0.6,0.4-0.6c0.7,0,2.8,0.1,5.8,0.1
			s5.1-0.1,5.8-0.1c0.3,0,0.4,0.4,0.4,0.6c0,0.5-0.2,0.6-0.7,0.6l-2.2,0.2c-0.9,0.1-1.3,0.8-1.3,2.8v13.3c0,4.3,0.6,4.5,3.6,4.5
			c4.4,0,5.5-0.9,6.6-2.8l1.1-2c0.4-0.7,0.5-0.8,0.6-0.8c0.2,0,0.6,0.1,0.9,0.1c0.2,0.1,0.2,0.1,0.2,0.2s-0.3,1.2-0.4,1.8l-0.9,3.9
			c-0.3,1.1-0.3,1.2-0.7,1.2c-2.9,0-6.6-0.1-9.8-0.1c-3,0-6,0.1-9,0.1c-0.3,0-0.4-0.4-0.4-0.6c0-0.5,0.2-0.5,0.7-0.6l2.2-0.2
			c0.9-0.1,1.3-0.8,1.3-2.8V20L99.6,20z"/>
	</g>
	<g>
		<path class="st0" d="M138.3,14.7c0-3.7-0.1-4.9-0.1-7.3c-0.1-3-0.9-3.5-5.2-3.5c-0.6,0-0.6-0.4-0.6-0.9c0-0.3,0.1-0.7,0.5-0.7
			s4.6,0.2,7.9,0.2c3.3,0,7.8-0.2,8.2-0.2s0.5,0.4,0.5,0.7c0,0.5,0,0.9-0.6,0.9c-4.5,0-5.4,0.4-5.4,3.5c-0.1,2.4-0.1,3.6-0.1,7.3
			v12.6c0,2.2,0.1,5.6,0.2,8.1c0.1,1.9,1.5,2.1,5.4,2.1c7.9,0,11.7-0.3,14.1-7.6c0.4-1.1,0.3-1.4,0.7-1.4c1,0,1.1,0.2,1.1,0.6
			c0,0.3-1.1,4.5-2,9.7c-0.1,0.3-0.3,0.4-0.5,0.4c-0.6,0-1.2-0.1-21.4-0.1c-7.6,0-7.8,0.1-8.2,0.1s-0.4-0.2-0.4-0.7
			c0-0.6,0-0.9,1.2-0.9c4.1,0,4.4-0.9,4.4-2.3c0.1-2.6,0.2-5.9,0.2-8.1V14.7H138.3z"/>
	</g>
	<g>
		<path class="st0" d="M172.3,20c0-2-0.4-2.7-1.2-2.8l-2-0.2c-0.8-0.1-1-0.2-1-0.6c0-0.3,0.1-0.6,0.4-0.6c2.9,0,5.8,0.1,8.7,0.1
			s5.8-0.1,8.7-0.1c0.4,0,0.6,0.2,0.7,0.4c0.1,0.7,0.6,4.4,0.6,4.7c0,0.2-0.1,0.4-0.3,0.4h-0.6c-0.2,0-0.3-0.1-0.5-0.4l-1.1-1.7
			c-1-1.6-2.3-1.9-5.1-1.9c-3,0-3.3,0.2-3.3,1.7v7.5c1,0.1,1.9,0.1,2.7,0.1c2.4,0,2.8-0.3,3.2-1.9c0.3-1.3,0.5-1.5,0.9-1.5
			s0.7,0.1,0.7,0.4c0,1-0.2,2.5-0.2,4.3c0,1.2,0.1,2.2,0.1,3.3c0,0.3-0.2,0.4-0.8,0.4c-0.5,0-0.6-0.3-0.7-1.7
			c-0.1-1.5-1.3-1.8-2.9-1.8h-3v8.3c0,1.1,0.6,1.3,4.3,1.3c3.1,0,4.2-0.2,5.7-2.2l1.5-2c0.1-0.1,0.2-0.2,0.4-0.2h0.5
			c0.3,0,0.4,0.2,0.4,0.3c0,0.2-0.1,0.5-0.1,0.7l-1.3,4.5c-0.1,0.3-0.5,0.4-1,0.4c-1.2,0-4.8-0.1-7.8-0.1c-3.5,0-7,0.1-10.4,0.1
			c-0.3,0-0.4-0.4-0.4-0.6c0-0.5,0.2-0.6,0.8-0.6l2.1-0.2c0.8-0.1,1.2-0.8,1.2-2.8V20H172.3z"/>
	</g>
	<g>
		<path class="st0" d="M203,15.2c0.1-0.2,0.5-0.2,0.7-0.2s0.6,0.1,0.7,0.3l7.1,19.9c0.8,2.3,1.6,2.6,2.2,2.7l1.3,0.2
			c0.3,0.1,0.4,0.1,0.4,0.3c0,0.6,0,0.9-0.4,0.9c-1.8,0-3.5-0.1-5.5-0.1c-1.9,0-3.7,0.1-5.5,0.1c-0.3,0-0.4-0.3-0.4-0.6
			c0-0.5,0.1-0.8,0.6-0.8h0.5h0.6c1.2,0,1.6-0.6,1.6-1.2c0-1.1-0.9-3.5-1.9-5.9h-7.4c-0.2,0-0.5,0.2-1.3,2.2
			c-0.7,1.5-1.2,2.8-1.2,3.6s0.3,1.2,1,1.3l2.1,0.2c0.6,0.1,0.7,0.2,0.7,0.5v0.5c0,0.2-0.1,0.3-0.3,0.3c-1.2,0-2.9-0.1-4.4-0.1
			s-3.1,0.1-4.4,0.1c-0.2,0-0.3-0.1-0.3-0.3v-0.7c0-0.2,0.2-0.2,0.5-0.3l1.6-0.2c0.7-0.1,1.1-0.7,1.5-1.6L203,15.2z M202.1,21
			c-2.1,4-3.7,7.7-3.7,7.8s0,0.4,0.3,0.4h6.2L202.1,21z"/>
	</g>
	<g>
		<path class="st0" d="M221,20c0-2-0.4-2.7-1.2-2.8l-2-0.2c-0.8-0.1-1-0.2-1-0.6c0-0.3,0.1-0.6,0.4-0.6c2.9,0,5.8,0.1,8.7,0.1
			s5.8-0.1,8.7-0.1c0.4,0,0.6,0.2,0.7,0.4c0.1,0.7,0.6,4.4,0.6,4.7c0,0.2-0.1,0.4-0.3,0.4H235c-0.2,0-0.3-0.1-0.5-0.4l-1.1-1.7
			c-1-1.6-2.3-1.9-5.1-1.9c-3,0-3.3,0.2-3.3,1.7v7.5c1,0.1,1.9,0.1,2.7,0.1c2.4,0,2.8-0.3,3.2-1.9c0.3-1.3,0.5-1.5,0.9-1.5
			s0.7,0.1,0.7,0.4c0,1-0.2,2.5-0.2,4.3c0,1.2,0.1,2.2,0.1,3.3c0,0.3-0.2,0.4-0.8,0.4c-0.5,0-0.6-0.3-0.7-1.7
			c-0.1-1.5-1.3-1.8-2.9-1.8h-3V35c0,2.1,0.4,2.6,1.4,2.8l1.7,0.2c0.8,0.1,1,0.1,1,0.6c0,0.3-0.1,0.6-0.4,0.6
			c-0.7,0-2.8-0.1-5.8-0.1c-2.6,0-4.7,0.1-5.4,0.1c-0.3,0-0.4-0.4-0.4-0.6c0-0.5,0.3-0.5,1-0.6l1.5-0.2c0.9-0.1,1.2-0.8,1.2-2.8V20
			H221z"/>
	</g>
	<g>
		<path class="st0" d="M283.7,2.6c1.9,0,2.4-1.3,3.2-1.3c0.3,0,0.4,0.2,0.9,2c1.7,5.9,2.3,6.9,2.3,7c0,0.2-0.5,0.4-0.8,0.4
			c-0.4,0-0.5-0.1-0.7-0.4c-2.5-4.5-5-6.2-8.7-6.2h-6.3c-0.9,0-1.2,0.6-1.2,3.3v19.9c0,2.2,0.1,5.6,0.2,8.1c0.1,1.4,0.4,2.3,4.4,2.3
			c1.4,0,1.4,0.3,1.4,0.9c0,0.5,0,0.7-0.4,0.7s-0.6-0.1-8.2-0.1s-7.8,0.1-8.1,0.1c-0.4,0-0.4-0.2-0.4-0.7c0-0.6,0-0.9,1.4-0.9
			c4.1,0,4.4-0.9,4.4-2.3c0.1-2.6,0.2-5.9,0.2-8.1V7.4c0-3.3-0.5-3.3-2.3-3.3h-5.6c-3.8,0-6.4,3.1-8.4,6.2c-0.2,0.3-0.4,0.3-0.9,0.3
			s-0.7-0.2-0.7-0.4s0.3-0.4,2.5-6.9c0.2-0.6,0.3-2.1,0.8-2.1c1.1,0,1.3,1.3,3.4,1.3L283.7,2.6L283.7,2.6z"/>
	</g>
	<g>
		<path class="st0" d="M286.2,20c0-2-0.4-2.7-1.2-2.8l-2-0.2c-0.8-0.1-1-0.2-1-0.6c0-0.3,0.1-0.6,0.4-0.6c2.9,0,5.8,0.1,8.7,0.1
			c2.9,0,5.8-0.1,8.7-0.1c0.4,0,0.6,0.2,0.7,0.4c0.1,0.7,0.6,4.4,0.6,4.7c0,0.2-0.1,0.4-0.3,0.4h-0.6c-0.2,0-0.3-0.1-0.5-0.4
			l-1.1-1.7c-1-1.6-2.3-1.9-5.1-1.9c-3,0-3.3,0.2-3.3,1.7v7.5c1,0.1,1.9,0.1,2.7,0.1c2.4,0,2.8-0.3,3.2-1.9c0.3-1.3,0.5-1.5,0.9-1.5
			s0.7,0.1,0.7,0.4c0,1-0.2,2.5-0.2,4.3c0,1.2,0.1,2.2,0.1,3.3c0,0.3-0.2,0.4-0.8,0.4c-0.5,0-0.6-0.3-0.7-1.7
			c-0.1-1.5-1.3-1.8-2.9-1.8h-3v8.3c0,1.1,0.6,1.3,4.3,1.3c3.1,0,4.2-0.2,5.7-2.2l1.5-2c0.1-0.1,0.2-0.2,0.4-0.2h0.5
			c0.3,0,0.4,0.2,0.4,0.3c0,0.2-0.1,0.5-0.1,0.7l-1.3,4.5c-0.1,0.3-0.5,0.4-1,0.4c-1.2,0-4.8-0.1-7.8-0.1c-3.5,0-7,0.1-10.4,0.1
			c-0.3,0-0.4-0.4-0.4-0.6c0-0.5,0.2-0.6,0.8-0.6l2.1-0.2c0.8-0.1,1.2-0.8,1.2-2.8L286.2,20L286.2,20z"/>
	</g>
	<g>
		<path class="st0" d="M317,15.2c0.1-0.2,0.5-0.2,0.7-0.2s0.6,0.1,0.7,0.3l7.1,19.9c0.8,2.3,1.6,2.6,2.2,2.7l1.3,0.2
			c0.3,0.1,0.4,0.1,0.4,0.3c0,0.6,0,0.9-0.4,0.9c-1.8,0-3.5-0.1-5.5-0.1c-1.9,0-3.7,0.1-5.5,0.1c-0.3,0-0.4-0.3-0.4-0.6
			c0-0.5,0.1-0.8,0.6-0.8h0.5h0.6c1.2,0,1.6-0.6,1.6-1.2c0-1.1-0.9-3.5-1.9-5.9h-7.4c-0.2,0-0.5,0.2-1.3,2.2
			c-0.7,1.5-1.2,2.8-1.2,3.6s0.3,1.2,1,1.3l2.1,0.2c0.6,0.1,0.7,0.2,0.7,0.5v0.5c0,0.2-0.1,0.3-0.3,0.3c-1.2,0-2.9-0.1-4.4-0.1
			c-1.4,0-3.1,0.1-4.4,0.1c-0.2,0-0.3-0.1-0.3-0.3v-0.7c0-0.2,0.2-0.2,0.5-0.3l1.6-0.2c0.7-0.1,1.1-0.7,1.5-1.6L317,15.2z M316,21
			c-2.1,4-3.7,7.7-3.7,7.8s0,0.4,0.3,0.4h6.2L316,21z"/>
	</g>
	<g>
		<path class="st0" d="M332.6,34.9c-0.1-0.8-0.2-1.3-0.2-1.9c0-0.3,0.3-0.5,0.8-0.5s0.6,0.4,1.2,1.7c1.3,3,3.2,4.2,5.5,4.2
			c2.7,0,4.1-2,4.1-4.3c0-5.8-10.8-4.1-10.8-11.8c0-4.2,3.6-7,7.7-7c3.3,0,4.3,0.9,5,0.9c0.4,0,0.8-0.5,1.1-0.5
			c0.3,0,0.4,0.2,0.4,0.5l0.1,0.8l0.4,4c0.1,0.3,0.1,0.5,0.1,0.7c0,0.3-0.1,0.6-0.6,0.6s-0.7-0.1-0.8-0.4l-0.7-1.6
			c-1-2.5-2.7-3.7-4.7-3.7c-2.6,0-4.3,1.9-4.3,4c0,5.9,11.2,4.1,11.2,11.9c0,3.9-2.7,7.1-8.4,7.1c-3.1,0-6.2-0.6-6.5-0.8
			c-0.2-0.2-0.3-0.3-0.3-0.9L332.6,34.9z"/>
	</g>
	<g>
		<path class="st0" d="M381,35.8c-2.1,2.4-4.4,3.9-7.3,3.9c-4.3,0-6.7-2.9-6.7-6c0-2.6,1.3-5.1,5.7-7.5c-1.4-1.7-2.5-3.5-2.5-5.2
			c0-3.2,3.4-5.2,6.6-5.2c3.1,0,5.3,1.4,5.3,4.1c0,1.9-1.9,4-5,5.3l6,6.7l1.8-2.4c0.5-0.6,0.7-1.2,0.7-1.9c0-0.5-0.4-0.9-1-0.9
			l-2.1-0.2c-0.3-0.1-0.4-0.4-0.4-0.7c0-0.4,0.1-0.6,0.5-0.6h8.7c0.4,0,0.6,0.1,0.6,0.4V26c0,0.2-0.3,0.4-0.9,0.5l-1.4,0.2
			c-0.9,0.2-1.6,0.8-2.2,1.5l-3.5,4.7c2.8,3.7,3.6,4.4,5.1,4.4c1.2,0,1.7-0.6,2-0.6c0.4,0,0.6,0.5,0.6,0.8c0,0.1-2.6,2.2-5.2,2.2
			c-1.3,0-2.9-0.6-3.7-1.5L381,35.8z M373.6,27.1c-1.6,0.9-2.8,2.4-2.8,4.7c0,2.9,2.3,5.2,5.4,5.2c1.6,0,3.1-1,4.1-2.2L373.6,27.1z
			 M376.5,24.3c1.9-1.1,2.9-2.7,2.9-4.2c0-1.8-1.2-2.9-2.7-2.9c-1.4,0-2.7,1.1-2.7,2.9C374,21.2,374.8,22.5,376.5,24.3z"/>
	</g>
	<g>
		<path class="st0" d="M12.2,73v5.8c0,2.2,0.1,5.6,0.2,8.1c0.1,1.4,0.4,2.3,4.4,2.3c1.4,0,1.4,0.3,1.4,0.9c0,0.5,0,0.7-0.4,0.7
			s-0.6-0.1-8.2-0.1s-7.8,0.1-8.1,0.1c-0.4,0-0.4-0.2-0.4-0.7c0-0.6,0-0.9,1.4-0.9c4.1,0,4.4-0.9,4.4-2.3C7,84.3,7.1,81,7.1,78.8
			V66.2c0-3.7-0.1-4.9-0.1-7.3c-0.1-3-0.9-3.5-5.4-3.5C1,55.4,1,55,1,54.5c0-0.3,0.1-0.7,0.5-0.7S6.4,54,9.6,54
			c3.3,0,7.8-0.2,8.2-0.2c0.4,0,0.5,0.4,0.5,0.7c0,0.5,0,0.9-0.6,0.9c-4.5,0-5.4,0.4-5.4,3.5c-0.1,2.4-0.1,3.6-0.1,7.3v5.3h20.5
			v-5.3c0-3.7-0.1-4.9-0.1-7.3c-0.1-3-0.9-3.5-5.4-3.5c-0.6,0-0.6-0.4-0.6-0.9c0-0.3,0.1-0.7,0.5-0.7S32,54,35.3,54s7.7-0.2,8.2-0.2
			c0.4,0,0.5,0.4,0.5,0.7c0,0.5,0,0.9-0.6,0.9c-4.5,0-5.4,0.4-5.4,3.5c-0.1,2.4-0.1,3.6-0.1,7.3v12.6c0,2.2,0.1,5.6,0.2,8.1
			c0.1,1.4,0.4,2.3,4.4,2.3c1.4,0,1.4,0.3,1.4,0.9c0,0.5,0,0.7-0.4,0.7s-0.6-0.1-8.2-0.1s-7.8,0.1-8.2,0.1c-0.4,0-0.4-0.2-0.4-0.7
			c0-0.6,0-0.9,1.4-0.9c4.1,0,4.4-0.9,4.4-2.3c0.1-2.6,0.2-5.9,0.2-8.1V73H12.2z"/>
	</g>
	<g>
		<path class="st0" d="M50.6,71.5c0-2-0.4-2.7-1.2-2.8l-2-0.2c-0.8-0.1-1-0.2-1-0.6c0-0.3,0.1-0.6,0.4-0.6c2.9,0,5.8,0.1,8.7,0.1
			s5.8-0.1,8.7-0.1c0.4,0,0.6,0.2,0.7,0.4c0.1,0.7,0.6,4.4,0.6,4.7c0,0.2-0.1,0.4-0.3,0.4h-0.6c-0.2,0-0.3-0.1-0.5-0.4L63,70.7
			c-1-1.6-2.3-1.9-5.1-1.9c-3,0-3.3,0.2-3.3,1.7V78c1,0.1,1.9,0.1,2.7,0.1c2.4,0,2.8-0.3,3.2-1.9c0.3-1.3,0.5-1.5,0.9-1.5
			s0.7,0.1,0.7,0.4c0,1-0.2,2.5-0.2,4.3c0,1.2,0.1,2.2,0.1,3.3c0,0.3-0.2,0.4-0.8,0.4c-0.5,0-0.6-0.3-0.7-1.7
			c-0.1-1.5-1.3-1.8-2.9-1.8h-3v8.3c0,1.1,0.6,1.3,4.3,1.3c3.1,0,4.2-0.2,5.7-2.2l1.5-2c0.1-0.1,0.2-0.2,0.4-0.2H67
			c0.3,0,0.4,0.2,0.4,0.3c0,0.2-0.1,0.5-0.1,0.7L66,90.3c-0.1,0.3-0.5,0.4-1,0.4c-1.2,0-4.8-0.1-7.8-0.1c-3.5,0-7,0.1-10.4,0.1
			c-0.3,0-0.4-0.4-0.4-0.6c0-0.5,0.2-0.6,0.8-0.6l2.1-0.2c0.8-0.1,1.2-0.8,1.2-2.8L50.6,71.5C50.5,71.5,50.6,71.5,50.6,71.5z"/>
	</g>
	<g>
		<path class="st0" d="M74.5,71.5c0-2.2-0.5-2.7-1.5-2.8l-2.1-0.1c-0.3,0-0.5-0.2-0.5-0.7c0-0.3,0.1-0.6,0.4-0.6
			c0.7,0,2.8,0.1,5.8,0.1c2.2,0,4.3-0.1,6.5-0.1c5,0,7.6,2.3,7.6,5.9c0,5.1-5,5.4-5,5.9c0,0.1,0.3,0.5,0.8,1.4l4.5,7.7
			c0.4,0.6,0.9,1.1,2,1.1c0.9,0,1.2,0.1,1.2,0.5c0,0.6-0.1,0.9-0.3,0.9c-1.2,0-2.3-0.1-3.5-0.1c-1.1,0-2.1,0.1-3,0.1
			c-0.5,0-0.7-0.4-1.3-1.7l-3.5-7.3c-0.7-1.3-1-1.5-2.1-1.5h-1.9v6.2c0,2.2,0.5,2.7,1.3,2.8l1.8,0.2c0.4,0.1,0.6,0.1,0.6,0.6
			c0,0.3-0.1,0.6-0.4,0.6c-0.7,0-2.8-0.1-5.4-0.1s-4.7,0.1-5.4,0.1c-0.3,0-0.4-0.4-0.4-0.6c0-0.5,0.2-0.6,0.6-0.6l1.8-0.2
			c0.8-0.1,1.3-0.6,1.3-2.8L74.5,71.5L74.5,71.5z M78.7,78.7h2.5c2.6,0,5.1-1.8,5.1-4.7c0-3.5-2.4-5.2-5-5.2c-2.4,0-2.5,0.1-2.5,4.3
			L78.7,78.7C78.8,78.7,78.7,78.7,78.7,78.7z"/>
	</g>
	<g>
		<path class="st0" d="M100.3,71.5c0-2.2-0.4-2.7-1.2-2.8l-2-0.2c-0.8-0.1-1-0.2-1-0.6c0-0.3,0.1-0.6,0.4-0.6c0.7,0,2.8,0.1,5.8,0.1
			c2.2,0,4.4-0.1,6.6-0.1c5.1,0,7.6,1.7,7.6,5.3c0,2.3-1.2,4.1-3.4,4.8c-1.7,0.5-2.5,0.4-2.5,0.8c0,0.3,0.5,0.3,1,0.4
			c3,0.6,5.6,2.2,5.6,5.5c0,3.9-2.3,6.7-8.4,6.7c-2.2,0-4.4-0.1-6.7-0.1c-1.9,0-3.8,0.1-5.7,0.1c-0.3,0-0.4-0.4-0.4-0.6
			c0-0.5,0.2-0.5,1-0.6l1.8-0.2c1-0.1,1.3-0.8,1.3-2.8V71.5H100.3z M104.5,77.6h2.1c3.8,0,5.6-1.4,5.6-4.4c0-2.5-1.3-4.4-5.4-4.4
			h-1.1c-0.8,0-1.1,0.3-1.1,1.6L104.5,77.6C104.6,77.6,104.5,77.6,104.5,77.6z M104.5,86.7c0,2.1,0.2,2.5,2.2,2.5
			c3.5,0,5.7-1.3,5.7-4.5c0-3.6-2.5-5.6-6-5.6h-1.9C104.5,79.1,104.5,86.7,104.5,86.7z"/>
	</g>
	<g>
		<path class="st0" d="M133,66.7c0.1-0.2,0.5-0.2,0.7-0.2s0.6,0.1,0.7,0.3l7.1,19.9c0.8,2.3,1.6,2.6,2.2,2.7l1.3,0.2
			c0.3,0.1,0.4,0.1,0.4,0.3c0,0.6,0,0.9-0.4,0.9c-1.8,0-3.5-0.1-5.5-0.1c-1.9,0-3.7,0.1-5.5,0.1c-0.3,0-0.4-0.3-0.4-0.6
			c0-0.5,0.1-0.8,0.6-0.8h0.5h0.6c1.2,0,1.6-0.6,1.6-1.2c0-1.1-0.9-3.5-1.9-5.9h-7.4c-0.2,0-0.5,0.2-1.3,2.2
			c-0.7,1.5-1.2,2.8-1.2,3.6c0,0.8,0.3,1.2,1,1.3l2.1,0.2c0.6,0.1,0.7,0.2,0.7,0.5v0.5c0,0.2-0.1,0.3-0.3,0.3
			c-1.2,0-2.9-0.1-4.4-0.1c-1.4,0-3.1,0.1-4.4,0.1c-0.2,0-0.3-0.1-0.3-0.3v-0.8c0-0.2,0.2-0.2,0.5-0.3l1.6-0.2
			c0.7-0.1,1.1-0.7,1.5-1.6L133,66.7z M132,72.5c-2.1,4-3.7,7.7-3.7,7.8c0,0.1,0,0.4,0.3,0.4h6.2L132,72.5z"/>
	</g>
	<g>
		<path class="st0" d="M150.9,71.5c0-2-0.4-2.7-1.4-2.8l-2.1-0.2c-0.5-0.1-0.7-0.2-0.7-0.6c0-0.3,0.1-0.6,0.4-0.6
			c0.7,0,2.8,0.1,5.8,0.1s5.1-0.1,5.8-0.1c0.3,0,0.4,0.4,0.4,0.6c0,0.5-0.2,0.6-0.7,0.6l-2.2,0.2c-0.9,0.1-1.3,0.8-1.3,2.8v13.3
			c0,4.3,0.6,4.5,3.6,4.5c4.4,0,5.5-0.9,6.6-2.8l1.1-2c0.4-0.7,0.5-0.8,0.6-0.8c0.2,0,0.6,0.1,0.9,0.1c0.2,0.1,0.2,0.1,0.2,0.2
			s-0.3,1.2-0.4,1.8l-0.9,3.9c-0.3,1.1-0.3,1.2-0.7,1.2c-2.9,0-6.6-0.1-9.8-0.1c-3,0-6,0.1-9,0.1c-0.3,0-0.4-0.4-0.4-0.6
			c0-0.5,0.2-0.5,0.7-0.6l2.2-0.2c0.9-0.1,1.3-0.8,1.3-2.8L150.9,71.5L150.9,71.5z"/>
	</g>
	<g>
		<path class="st0" d="M189.5,66.2c0-3.7-0.1-4.9-0.1-7.3c-0.1-3-0.9-3.5-5.4-3.5c-0.6,0-0.6-0.4-0.6-0.9c0-0.3,0.1-0.7,0.5-0.7
			s4.9,0.2,8.2,0.2s7.8-0.2,8.2-0.2s0.5,0.4,0.5,0.7c0,0.5,0,0.9-0.6,0.9c-4.5,0-5.4,0.4-5.4,3.5c-0.1,2.4-0.1,3.6-0.1,7.3v12.6
			c0,2.2,0.1,5.6,0.2,8.1c0.1,1.4,0.4,2.3,4.4,2.3c1.4,0,1.4,0.3,1.4,0.9c0,0.5,0,0.7-0.4,0.7s-0.6-0.1-8.2-0.1
			c-7.6,0-7.8,0.1-8.2,0.1s-0.4-0.2-0.4-0.7c0-0.6,0-0.9,1.4-0.9c4.1,0,4.4-0.9,4.4-2.3c0.1-2.6,0.2-5.9,0.2-8.1L189.5,66.2
			L189.5,66.2z"/>
	</g>
	<g>
		<path class="st0" d="M226.1,83.9c0.1-3.7,0.2-8.9,0.2-11.6c0-3.4-0.5-3.7-2.6-3.7c-1,0-1.2-0.1-1.2-0.4c0-0.7,0.1-1,0.4-1
			c1.1,0,3,0.1,4.6,0.1c1.5,0,3.4-0.1,4.5-0.1c0.3,0,0.4,0.3,0.4,0.9c0,0.3-0.3,0.4-1.4,0.4c-2,0-2.9,1-2.9,3.3L227.7,90
			c0,0.4-0.2,1-0.6,1c-0.5,0-0.7-0.3-1.1-0.7c-3.6-3.6-10.6-11.1-16.8-16.9c-0.2,2.3-0.2,4.6-0.2,7.3c0,8,0.7,8.5,2.3,8.7l1.9,0.2
			c0.3,0.1,0.5,0.1,0.5,0.6s-0.1,0.7-0.4,0.7c-0.5,0-2.6-0.1-4.7-0.1c-1.8,0-3.5,0.1-4.7,0.1c-0.4,0-0.5-0.3-0.5-0.8
			c0-0.4,0.2-0.6,0.4-0.6l1.8-0.1c0.8-0.1,1.4-0.6,1.7-1.2s0.5-5.3,0.5-12.7c0-1.2-0.1-2.4-0.1-3.4l-1.7-2c-0.9-1-1.5-1.4-2.3-1.4
			c-0.9,0-1.1-0.1-1.1-0.4c0-0.5,0-1,0.4-1c1.1,0,2.1,0.1,3.1,0.1c1.2,0,2.5-0.1,3.2-0.1c0.2,0,0.6,0.4,1.6,1.3L226.1,83.9z"/>
	</g>
	<g>
		<path class="st0" d="M238.8,71.5c0-2-0.4-2.7-1.2-2.8l-2-0.2c-0.8-0.1-1-0.2-1-0.6c0-0.3,0.1-0.6,0.4-0.6c2.9,0,5.8,0.1,8.7,0.1
			s5.8-0.1,8.7-0.1c0.4,0,0.6,0.2,0.7,0.4c0.1,0.7,0.6,4.4,0.6,4.7c0,0.2-0.1,0.4-0.3,0.4h-0.6c-0.2,0-0.3-0.1-0.5-0.4l-1.1-1.7
			c-1-1.6-2.3-1.9-5.1-1.9c-3,0-3.3,0.2-3.3,1.7V78c1,0.1,1.9,0.1,2.7,0.1c2.4,0,2.8-0.3,3.2-1.9c0.3-1.3,0.5-1.5,0.9-1.5
			s0.7,0.1,0.7,0.4c0,1-0.2,2.5-0.2,4.3c0,1.2,0.1,2.2,0.1,3.3c0,0.3-0.2,0.4-0.8,0.4c-0.5,0-0.6-0.3-0.7-1.7
			c-0.1-1.5-1.3-1.8-2.9-1.8h-3v6.9c0,2.1,0.4,2.6,1.4,2.8l1.7,0.2c0.8,0.1,1,0.1,1,0.6c0,0.3-0.1,0.6-0.4,0.6
			c-0.7,0-2.8-0.1-5.8-0.1c-2.6,0-4.7,0.1-5.4,0.1c-0.3,0-0.4-0.4-0.4-0.6c0-0.5,0.3-0.5,1-0.6l1.5-0.2c0.9-0.1,1.2-0.8,1.2-2.8v-15
			C238.6,71.5,238.8,71.5,238.8,71.5z"/>
	</g>
	<g>
		<path class="st0" d="M265.4,81.1c0,5.6,2.2,7.7,6.1,7.7c5.2,0,7.1-4.6,7.1-14.8c0-4.6-0.4-5.1-2.3-5.3l-0.8-0.1
			c-0.3-0.1-0.5-0.1-0.5-0.7c0-0.5,0.1-0.6,0.5-0.6c1.2,0,2.6,0.1,4.1,0.1s2.8-0.1,4.1-0.1c0.5,0,0.5,0.2,0.5,0.6
			c0,0.6-0.1,0.7-0.3,0.7l-1.6,0.2c-1.7,0.2-2.1,2-2.4,10.9c-0.2,5.8-2.8,11.6-10.1,11.6c-5.9,0-8.6-4.2-8.6-9.8v-10
			c0-2.1-0.4-2.5-1.7-2.7l-1.5-0.2c-0.3-0.1-0.5-0.1-0.5-0.6c0-0.3,0.1-0.6,0.4-0.6c0.7,0,2.8,0.1,5.4,0.1c3,0,5.1-0.1,5.8-0.1
			c0.3,0,0.4,0.4,0.4,0.6c0,0.5-0.2,0.6-0.5,0.6l-1.6,0.2c-1.7,0.2-2.1,0.6-2.1,2.8v9.5C265.3,81.1,265.4,81.1,265.4,81.1z"/>
	</g>
	<g>
		<path class="st0" d="M288.1,86.4c-0.1-0.8-0.2-1.3-0.2-1.9c0-0.3,0.3-0.5,0.8-0.5s0.6,0.4,1.2,1.7c1.3,3,3.2,4.2,5.5,4.2
			c2.7,0,4.1-2,4.1-4.3c0-5.8-10.8-4.1-10.8-11.8c0-4.2,3.6-7,7.7-7c3.3,0,4.3,0.9,5,0.9c0.4,0,0.8-0.5,1.1-0.5
			c0.3,0,0.4,0.2,0.4,0.5l0.1,0.8l0.4,4c0.1,0.3,0.1,0.5,0.1,0.7c0,0.3-0.1,0.6-0.6,0.6s-0.7-0.1-0.8-0.4l-0.7-1.6
			c-1-2.5-2.7-3.7-4.7-3.7c-2.6,0-4.3,1.9-4.3,4c0,5.9,11.2,4.1,11.2,11.9c0,3.9-2.7,7.1-8.4,7.1c-3.1,0-6.2-0.6-6.5-0.8
			c-0.2-0.2-0.3-0.3-0.3-0.9L288.1,86.4z"/>
	</g>
	<g>
		<path class="st0" d="M312.2,71.3c0-2-0.4-2.5-1.2-2.6l-1.9-0.2c-0.5-0.1-0.7-0.2-0.7-0.6s0.1-0.6,0.4-0.6c0.7,0,2.8,0.1,5.4,0.1
			s4.7-0.1,5.4-0.1c0.3,0,0.4,0.2,0.4,0.6c0,0.5-0.2,0.6-0.7,0.6l-1.9,0.2c-0.8,0.1-1.2,0.6-1.2,2.6v15.5c0,2,0.4,2.5,1.2,2.6
			l1.9,0.2c0.5,0.1,0.7,0.2,0.7,0.6s-0.1,0.6-0.4,0.6c-0.7,0-2.8-0.1-5.4-0.1s-4.7,0.1-5.4,0.1c-0.3,0-0.4-0.2-0.4-0.6
			c0-0.5,0.2-0.6,0.7-0.6l1.9-0.2c0.8-0.1,1.2-0.6,1.2-2.6V71.3z"/>
	</g>
	<g>
		<path class="st0" d="M336.3,66.8c7.3,0,12.1,4.2,12.1,12.2s-4.7,12.2-12.1,12.2S324.2,87,324.2,79S329,66.8,336.3,66.8z
			 M336.3,89.8c4.1,0,7.2-4.2,7.2-10.8c0-6.7-3.1-10.8-7.2-10.8s-7.2,4.2-7.2,10.8C329.1,85.7,332.2,89.8,336.3,89.8z"/>
	</g>
	<g>
		<path class="st0" d="M375.2,83.9c0.1-3.7,0.2-8.9,0.2-11.6c0-3.4-0.5-3.7-2.6-3.7c-1,0-1.2-0.1-1.2-0.4c0-0.7,0.1-1,0.4-1
			c1.1,0,3,0.1,4.6,0.1c1.5,0,3.4-0.1,4.5-0.1c0.3,0,0.4,0.3,0.4,0.9c0,0.3-0.3,0.4-1.4,0.4c-2,0-2.9,1-2.9,3.3L376.8,90
			c0,0.4-0.2,1-0.6,1c-0.5,0-0.7-0.3-1.1-0.7c-3.6-3.6-10.6-11.1-16.8-16.9c-0.2,2.3-0.2,4.6-0.2,7.3c0,8,0.7,8.5,2.3,8.7l1.9,0.2
			c0.3,0.1,0.5,0.1,0.5,0.6s-0.1,0.7-0.4,0.7c-0.5,0-2.6-0.1-4.7-0.1c-1.8,0-3.5,0.1-4.7,0.1c-0.4,0-0.5-0.3-0.5-0.8
			c0-0.4,0.2-0.6,0.4-0.6l1.8-0.1c0.8-0.1,1.4-0.6,1.7-1.2c0.3-0.6,0.5-5.3,0.5-12.7c0-1.2-0.1-2.4-0.1-3.4l-1.7-2
			c-0.9-1-1.5-1.4-2.3-1.4c-0.9,0-1.1-0.1-1.1-0.4c0-0.5,0-1,0.4-1c1.1,0,2.1,0.1,3.1,0.1c1.2,0,2.5-0.1,3.2-0.1
			c0.2,0,0.6,0.4,1.6,1.3L375.2,83.9z"/>
	</g>
	<g>
		<path class="st0" d="M385.5,86.4c-0.1-0.8-0.2-1.3-0.2-1.9c0-0.3,0.3-0.5,0.8-0.5s0.6,0.4,1.2,1.7c1.3,3,3.2,4.2,5.5,4.2
			c2.7,0,4.1-2,4.1-4.3c0-5.8-10.8-4.1-10.8-11.8c0-4.2,3.6-7,7.7-7c3.3,0,4.3,0.9,5,0.9c0.4,0,0.8-0.5,1.1-0.5
			c0.3,0,0.4,0.2,0.4,0.5l0.1,0.8l0.4,4c0.1,0.3,0.1,0.5,0.1,0.7c0,0.3-0.1,0.6-0.6,0.6s-0.7-0.1-0.8-0.4l-0.7-1.6
			c-1-2.5-2.7-3.7-4.7-3.7c-2.6,0-4.3,1.9-4.3,4c0,5.9,11.2,4.1,11.2,11.9c0,3.9-2.7,7.1-8.4,7.1c-3.1,0-6.2-0.6-6.5-0.8
			c-0.2-0.2-0.3-0.3-0.3-0.9L385.5,86.4z"/>
	</g>
</g>
</svg>
