<?xml version="1.0" encoding="utf-8"?>
<!-- Generator: Adobe Illustrator 26.0.0, SVG Export Plug-In . SVG Version: 6.00 Build 0)  -->
<svg version="1.1" id="Layer_1" xmlns="http://www.w3.org/2000/svg" xmlns:xlink="http://www.w3.org/1999/xlink" x="0px" y="0px"
	 viewBox="0 0 428 272" style="enable-background:new 0 0 428 272;" xml:space="preserve">
<style type="text/css">
	.st0{fill:#FFFFFF;}
</style>
<g>
	<g>
		<path class="st0" d="M163,181c0,0,2,0.7,2.5,1.9l-8.4,19.8h2.9l2.6-6.1h9.7l3.3,6.1h5.5L169.5,181H163z M163.7,193.7l3.2-8l3.9,8
			H163.7z"/>
	</g>
	<g>
		<path class="st0" d="M96.9,98.3c-8.4,1.4-18.2,4.3-21.9,13.6c-0.9,2.1-1.2,4.2-1.2,6.2c0.1,10.9,10.1,20.3,12,31.2
			c0.2,1,0.3,2,0.3,2.9c0,1.8-0.4,3.3-1.2,4.4c-0.8,1-2.1,1.8-4.4,2.2c-0.8,0.1-1.6,0.2-2.6,0.1c-4.5-0.1-6.2-3.2-8.2-7.9
			c-0.3-0.8-0.7-1.7-1-2.5c-0.3,1-0.6,1.9-0.8,2.9c-0.9,3.3-1.8,6.5-2.8,9.8c0.3,0.1,0.5,0.2,0.7,0.2c4.3,1.5,7.3,2.2,11.8,2.2
			c0.9,0,1.8-0.1,2.7-0.2h0.1c8.6-1.2,15-8,15.7-17.9c0-0.4,0-0.7,0-1c0-6.2-3.1-11.6-6-17.1c-2.9-5.4-5.8-10.9-5.8-17.2
			c0-0.3,0-0.6,0-1c0,0,0,0,0-0.1c0,0,0,0,0-0.1l0,0c0-1.1,0.5-1.9,1.5-2.7s2.6-1.4,4.5-1.6c2.8-0.4,6.2,0,9.3,1.6
			c1,0.5,1.9,0.9,2.9,1.4c-1.7-3.2-3.5-6.4-5.3-9.6C97.3,98.2,97.1,98.3,96.9,98.3z"/>
	</g>
	<g>
		<path class="st0" d="M125.7,181L125.7,181H115h-4.2l-2.4,5.4l1.6-1.1c1.7-1.2,4-1.5,5.2-1.5c0.1,0,0.1,0,0.2,0v19h5.9v-19
			c0.3,0,0.7,0,1,0c1.3,0,2.4,0.3,4.2,1.5l1.6,1.1L125.7,181L125.7,181z"/>
	</g>
	<g>
		<path class="st0" d="M146.6,200.1h-5.3v-7.7h5.2c1,0.1,1.3,0.3,1.7,0.6l0.9,1v-6.2l-1,1.4c-0.4,0.5-0.6,0.5-1.6,0.5h-5.2v-6.3h5
			h0.1c1.4,0,2.5,0.2,3.2,0.6l1.4,0.9l-1.7-4h-13.8v21.7h0.5l0,0h14.4l2.5-5.2l-1.4,0.7C148.8,199.7,148.2,200,146.6,200.1z"/>
	</g>
	<g>
		<path class="st0" d="M177.8,108.2c0,14,0,28.1,0,42.1c-0.1,0.7-0.3,2.5-1.4,3.4c0.6,0,1.1-0.1,1.7-0.1l0,0
			c3.8-0.1,7.5-0.2,11.3-0.3l0,0c0.6,0,1.1,0,1.7,0c-1.2-1-1.4-3.1-1.4-3.6c0-18,0-35.9-0.1-53.9c0.1-0.8,0.4-2.4,1.4-3.3
			c-0.5,0-0.9,0-1.4,0l0,0c-2.1,0-4.2,0-6.3,0.1c-8.7,10.1-17.5,20.4-26.2,30.8c-8.5-9.4-17-18.7-25.5-27.8
			c-5.6,0.5-11.2,1-16.8,1.6c0,0,2.4,0.9,3.7,2.6c0.2,0.3,0.3,0.8,0.3,1.6c0,0.2,0,0.3,0,0.5c0,17.5,0,35,0,52.6
			c-0.1,0.8-0.4,2.4-1.4,3.4c0.5-0.1,0.9-0.1,1.4-0.1c2.3-0.2,4.5-0.4,6.8-0.7l0,0c0.5,0,0.9-0.1,1.4-0.1c-1.1-0.8-1.3-2.6-1.4-3.3
			c0-15.4,0-30.9,0-46.4c2.6,3.2,9.1,9.7,27.1,29.7c0.3,0.3,0.5,0.6,0.8,0.8c0.2-0.3,0.5-0.6,0.7-0.9c12.2-14.9,18.5-22.3,21.8-26.4
			C176.7,109.6,177.3,108.9,177.8,108.2z"/>
	</g>
	<g>
		<path class="st0" d="M237.5,69.5L237.5,69.5l15,1.4l3.1-4.7l-1.5,0.5c-2.6,0.9-3.4,1.3-4.8,1.3c-0.2,0-0.3,0-0.5,0l-5.6-0.5
			l0.7-7.2l3.8,0.4c1,0.2,1.4,0.4,1.7,0.8l0.8,1l0.5-5.8l-1.1,1.2c-0.3,0.3-0.5,0.4-1,0.4c-0.2,0-0.5,0-0.8,0l-3.8-0.4l0.5-5.9
			l3.5,0.4c1.5,0.1,2.7,0.4,3.4,0.9l1.4,0.9l-1.4-4L238.8,49l-1.9,20.6L237.5,69.5L237.5,69.5z"/>
	</g>
	<g>
		<path class="st0" d="M201.2,191l-8.6-10H185c0,0,2.2,1,2.3,2.2v0.1v19.4h2.8v-16.4c1.3,1.5,3.7,4.4,4.2,4.9
			c2.9,3.3,3.7,4.2,4.6,5.4l0.4,0.5l0.4-0.5c5.4-6.3,7.4-8.6,8.2-9.6v15.7h5.8V181H210L201.2,191z"/>
	</g>
	<g>
		<path class="st0" d="M259.9,72.2l2.9,0.6l2.3-14.8l10.5,18.7l3.8-23.1l-2.8-0.5l-1.8,11.1l-7.3-12.5l-4.8-0.8l-1.4-0.2l1,1.2
			c0.8,0.7,0.6,1.7,0.6,1.8L259.9,72.2z"/>
	</g>
	<g>
		<path class="st0" d="M152.2,67.7c0.9,1.4,1.5,2.1,1.4,3.3c0,0,0,1.2-1.3,1.6c-1,0.3-1.7,0-2.8-1s-2-2.6-2-2.6l-0.7,4.9
			c0,0,3.6,1.4,7.1,0.3c3.4-1.1,4.1-3.1,4.4-4.2c0.3-1.2-0.2-3.5-1.3-5c-1.2-1.5-4.1-4.7-4.8-6.2s-0.8-2.4-0.4-3
			c0.4-0.7,1.7-1,2.7-0.9s2,0.2,3.9,1l-3.1-3.7c0,0-4.1,0.9-5.8,2.1c-1.7,1.2-2.6,2.5-2.7,4.2c-0.1,1.7,0.7,3.1,1.7,4.4
			C149.4,64.1,151.4,66.3,152.2,67.7z"/>
	</g>
	<g>
		<polygon class="st0" points="231.8,48.5 228.3,48.4 221.2,62.7 213.9,48.1 213.6,48.1 207.7,48 219.9,71.2 		"/>
	</g>
	<g>
		<path class="st0" d="M188.8,69.8L188.8,69.8l14.7-0.7h0.3l2.4-5.1l-1.4,0.7c-2.7,1.4-3.3,1.8-5.1,2l-5.6,0.3l-0.4-7.2l4-0.2
			c1,0,1.4,0.2,1.8,0.5l1,0.9l-0.3-5.8l-0.9,1.3c-0.4,0.5-0.6,0.5-1.7,0.6l-4,0.2l-0.3-5.9l3.7-0.2c0.3,0,0.7,0,1,0
			c1.1,0,1.9,0.1,2.5,0.4l1.5,0.7l-2-3.7l-12.8,0.7l1,20.7L188.8,69.8z"/>
	</g>
	<g>
		<path class="st0" d="M168,53.7l2.2,18l6-0.7l-2.1-17.9c0.7-0.2,1.3-0.2,1.9-0.2c1,0,2.1,0.2,3.7,1l1.7,0.8l-3.1-4.8l-14.9,1.8
			l-1.6,5.7l1.9-2C165.1,54.1,166.4,53.7,168,53.7z"/>
	</g>
	<g>
		<path class="st0" d="M271.6,100.8c5,0.6,7.8,0.6,14.6,5.9c1,0.7,1.9,1.5,2.9,2.3c-2-4.6-3.9-9.2-5.9-13.8
			c-12.9-1-25.8-1.7-38.8-2.2c-2,4.4-4,8.8-6,13.2c0.8-0.6,1.6-1.2,2.5-1.9c0.1,0,0.1-0.1,0.2-0.1c4.9-4.3,8.7-4.3,13.6-4.3
			c0.7,0,1.4,0.1,2.1,0.1c0,17,0,33.9,0.1,50.9c0,0.6-0.2,2.6-1.4,3.5c0.5,0,0.9,0,1.4,0.1c3.9,0.2,7.9,0.4,11.8,0.7
			c0.5,0,0.9,0,1.4,0.1c-1.3-1.2-1.4-3.6-1.4-3.8c0-16.9,0.1-33.8,0.1-50.7C269.8,100.6,270.7,100.7,271.6,100.8z"/>
	</g>
	<g>
		<path class="st0" d="M285.2,200.1h-5.3v-7.7h5.3c1,0.1,1.3,0.3,1.7,0.6l0.9,1v-6.1l-1,1.4c-0.4,0.5-0.6,0.5-1.6,0.5H280v-6.3h5
			h0.1c1.4,0,2.5,0.2,3.2,0.6l1.4,0.9l-1.7-4h-13.8v21.7h0.5l0,0H289l2.5-5.2l-1.4,0.7C287.4,199.7,286.8,200,285.2,200.1z"/>
	</g>
	<g>
		<path class="st0" d="M225.2,153.3c0.5,0,0.9,0,1.4,0c-1.3-1.1-1.4-3.5-1.4-3.7c0-17.8,0-35.7,0-53.5c0-0.2,0.1-2.6,1.4-3.7
			c-0.6,0-1.1,0-1.7,0l0,0c-3.8-0.1-7.6-0.1-11.4-0.1c0,0,0,0,0-0.1c-0.6,0-1.1,0-1.7,0c1.4,1.1,1.4,3.7,1.4,3.7
			c0,17.8,0,35.6,0,53.4c0,0,0,2.6-1.4,3.7c0.5,0,0.9,0,1.4,0l0,0C217.2,153.2,221.2,153.2,225.2,153.3L225.2,153.3z"/>
	</g>
	<g>
		<path class="st0" d="M355.5,107c0.1-0.7,0.3-2.5,1.4-3.2c-0.4-0.1-0.9-0.1-1.4-0.2l0,0c-3.9-0.6-7.9-1.2-11.8-1.8l0,0
			c-0.5-0.1-0.9-0.1-1.4-0.2c1.1,1.1,1.3,3,1.4,3.7c0,6.6,0,13.1,0,19.7c-11.7-1.7-23.4-3.1-35.1-4.4c0-6.5,0-13,0-19.5
			c0,0,0-2.6,1.4-3.6c-0.6-0.1-1.1-0.1-1.7-0.2c-2.1-0.2-4.1-0.4-6.2-0.6c-0.6-0.1-1.1-0.1-1.7-0.2c1.2,1.1,1.4,3.2,1.4,3.7
			c0,17.9,0,35.9,0,53.9c-0.1,0.7-0.3,2.5-1.4,3.2c0.6,0.1,1.1,0.1,1.7,0.2l0,0c2,0.2,4.1,0.4,6.1,0.6c0.6,0.1,1.1,0.1,1.7,0.2
			c-1-0.9-1.3-2.6-1.4-3.4c0-9,0-18.1,0-27.1c11.7,1.2,23.4,2.7,35.1,4.4c0,9,0,17.9,0,26.9c-0.1,0.7-0.3,2.5-1.4,3.3
			c0.5,0.1,0.9,0.1,1.4,0.2c3.9,0.6,7.9,1.2,11.8,1.8l0,0c0.5,0.1,0.9,0.2,1.4,0.2c-1.3-1.2-1.4-3.6-1.4-3.9
			C355.5,142.8,355.5,124.9,355.5,107z"/>
	</g>
	<g>
		<path class="st0" d="M316.5,200.8c-1,0.3-1.5-0.2-1.6-0.3c-0.9-1.1-0.9-2.9-1.3-6.4c-0.2-1.5-1.1-3.8-2.9-4.7
			c1.3-0.8,2.4-2.1,2.4-4c0-0.1,0-0.1,0-0.2c0-2-1.9-4.3-5.8-4.3h-8v21.7h5.7v-19.9c0.2,0,0.4,0,0.6,0c1.9,0.1,2.8,0.5,3,2.7
			c0,0.2,0,0.4,0,0.5c0,1.8-0.7,2.9-3.4,4l0.3,1c0.3-0.1,0.6-0.1,0.9-0.1c1.7,0,2.6,0.8,2.7,2.1c0.4,7.2,2.8,9.9,5.2,10
			c1.1,0,2-0.4,3.1-1.8l-0.5-0.8L316.5,200.8z"/>
	</g>
	<g>
		<path class="st0" d="M266.8,200.5c-0.3,0.1-0.6,0.3-0.9,0.3s-0.4-0.1-0.6-0.2c-0.9-1.1-0.9-2.9-1.3-6.4c-0.2-1.7-1.5-4.6-4.2-5.1
			l6.4-8h-3.3l-6.4,7.7V181H256h-5.3v21.7h5.8V191h0.1c1.8,0,3.1,0.9,3.1,2.1c0.4,7.2,2.8,9.9,5.2,10c1.1,0,2.1-0.7,2.8-1.8
			l-0.3-1.1L266.8,200.5z"/>
	</g>
	<g>
		<path class="st0" d="M400.4,130.4v-0.1l0,0c0-5-0.7-10-2.1-14.9l-0.3-0.9l-0.9-0.2c-26.8-7.3-43.8-26.5-43.8-49.1
			c0-0.2,0-0.4,0-0.6v-0.9l-0.8-0.5c-35.6-22-87.2-34.9-138.6-35c-51.4,0-103.1,13-138.7,35.1l-0.8,0.5v0.9c0,0.1,0,0.2,0,0.3
			c0,22.4-16.8,41.7-43.6,49l-0.9,0.2l-0.3,0.9c-1.5,5-2.2,10.1-2.2,15.2v0.5v0.4v0.3c0,0.1,0,0.1,0,0.3c0,2.7,0.7,21.6,19.1,43.8
			c20.5,24.7,66.1,56.3,167.1,68.5h0.2h0.2c101-12.2,146.6-43.8,167.1-68.5c18.5-22.3,19.1-41.5,19.1-43.9c0,0,0,0,0-0.2V131
			L400.4,130.4z M397.2,131.6c0,1.9-0.5,20.3-18.4,41.9c-19.8,23.9-64.5,55.2-164.8,67.3c-100.3-12.2-145-43.5-164.8-67.3
			C31.4,152,30.9,134,30.9,131.8l0,0v-0.1v-0.4v-0.4v-0.6c0-4.5,0.6-9,1.9-13.4c27-7.7,44.8-27.7,45-51.3
			c34.9-21.3,85.7-34.1,136.2-34.1c50.4,0,101.3,12.7,136.1,34c0.1,23.9,18,44,45.3,51.7c1.2,4.4,1.8,8.8,1.8,13.2l0,0v0.2v0.5
			L397.2,131.6C397.2,131.5,397.2,131.5,397.2,131.6z"/>
	</g>
	<g>
		<path class="st0" d="M414,130.3v-0.2c0-8.7-1.8-17.4-5.2-25.8l-0.7-1.8l-1.9-0.3c-23.9-4.5-39.4-19.8-39.3-37.2
			c0-2,0.2-3.9,0.6-5.9l0.5-2.3l-1.9-1.3C327.9,29.6,271.6,14.4,214,14.4c-57.7,0-114,15.2-152.2,41.2l-1.9,1.3l0.4,2.2
			c0.4,1.9,0.5,3.8,0.5,5.6c0.1,17.3-15.3,32.6-39.1,37.2l-1.9,0.4l-0.7,1.7c-3.5,8.5-5.2,17.2-5.2,26v0.4v0.1c0,0.5,0,0.5,0,0.8
			c0,3.8,1,27,22.3,52.7c22.3,26.9,71.3,60.9,177.3,73.5h0.4h0.4C320.5,245,369.4,211,391.7,184c21.2-25.6,22.3-48.6,22.3-52.7
			c0-0.3,0-0.5,0-0.5V130.3z M407,131.5c0,3-0.7,24.3-20.6,48.3c-20.9,25.2-67.7,58.5-172.4,71c-104.6-12.5-151.5-45.8-172.4-71
			c-20-24.1-20.6-45.5-20.6-48.2c0-0.1,0-0.1,0-0.2l0,0v-0.2V131v-0.1v-0.3v-0.3c0-7.3,1.4-14.5,4.1-21.7
			c24.9-5.3,42.8-22.4,42.8-43.7c0-1.6-0.1-3.1-0.3-4.6c36.6-24.2,90.9-38.8,146.4-38.8S323.7,36,360.3,60.2
			c-0.2,1.6-0.3,3.3-0.3,4.9c0.1,21.3,18,38.4,43.1,43.7c2.6,7.1,4,14.3,4,21.5v0.2v0.6C407,131.1,407,131.2,407,131.5z"/>
	</g>
	<g>
		<path class="st0" d="M226.7,181c0,0,2,0.7,2.5,1.9l-8.4,19.8h2.9l2.5-6.1h9.7l3.3,6.1h5.5L233.3,181H226.7z M227.4,193.7l3.2-8
			l3.9,8H227.4z"/>
	</g>
</g>
</svg>
