<?xml version="1.0" encoding="utf-8"?>
<!-- Generator: Adobe Illustrator 26.0.3, SVG Export Plug-In . SVG Version: 6.00 Build 0)  -->
<svg version="1.1" id="Layer_1" xmlns="http://www.w3.org/2000/svg" xmlns:xlink="http://www.w3.org/1999/xlink" x="0px" y="0px"
	 viewBox="0 0 625 34" style="enable-background:new 0 0 625 34;" xml:space="preserve">
<g>
	<path d="M21.9,3.3c-0.2,0.5-0.3,0.8-0.4,1c-0.1,0.2-0.2,0.5-0.5,0.8c-1.4-1-2.9-1.6-4.6-1.6c-1.1,0-2.1,0.3-2.8,0.8
		s-1.1,1.3-1.1,2.2c0,0.4,0,0.9,0.1,1.3c0.1,0.4,0.3,0.9,0.5,1.5c0.3,0.6,0.6,1.3,1.1,2.1c0.4,0.8,1,1.8,1.7,3
		c0.5,0.9,0.9,1.7,1.3,2.4c0.3,0.7,0.6,1.5,0.9,2.1c0.2,0.7,0.4,1.3,0.5,2c0.1,0.7,0.1,1.3,0.1,2c0,1.4-0.2,2.7-0.7,3.8
		c-0.5,1.2-1.1,2.2-1.9,3s-1.8,1.5-3,1.9c-1.2,0.5-2.5,0.7-3.9,0.7c-1,0-1.8-0.1-2.6-0.3c-0.8-0.2-1.5-0.5-2.1-0.9
		c-0.6-0.4-1-0.9-1.4-1.4c-0.3-0.6-0.5-1.2-0.5-1.8c0-0.5,0.2-1,0.5-1.5s0.9-0.9,1.6-1.2c0.2-0.1,0.3-0.1,0.4-0.1
		c0.2,0,0.3,0.1,0.3,0.3c0,0,0,0.1,0,0.1c0,0.1,0,0.2,0,0.4v0.5c0,1.1,0.4,2,1.1,2.7c0.7,0.6,1.7,1,3,1c0.8,0,1.5-0.1,2.2-0.4
		c0.7-0.3,1.2-0.6,1.7-1.1c0.5-0.5,0.9-1,1.1-1.6c0.3-0.6,0.4-1.3,0.4-2.1c0-0.5,0-1-0.1-1.4c-0.1-0.4-0.2-0.9-0.4-1.5
		c-0.2-0.5-0.6-1.2-1-2c-0.4-0.8-1-1.7-1.7-2.9c-2-3.3-3-6.1-3-8.3c0-1.1,0.2-2.2,0.6-3.1c0.4-0.9,0.9-1.8,1.6-2.5s1.5-1.2,2.5-1.7
		c1-0.4,2-0.6,3.2-0.7C17.7,1,18.4,1,18.9,1c0.5,0,0.9,0,1.1,0c0.2,0,0.6,0,1.1-0.1c0.1,0,0.3,0,0.4,0c0.1,0,0.2,0,0.2,0
		c0.2,0,0.4,0.1,0.6,0.2s0.2,0.3,0.2,0.4c0,0.1-0.1,0.3-0.2,0.7C22.2,2.4,22,2.8,21.9,3.3z"/>
	<path d="M43.4,4.3c-0.3,0-0.6,0-0.9,0.1c-0.3,0.1-0.6,0.1-1,0.2v26.3l0,0.5c0,0.8-0.1,1.2-0.4,1.2h-3.8c-0.3,0-0.5-0.4-0.5-1.3V4.5
		c-0.3-0.1-0.5-0.1-0.6-0.1s-0.3,0-0.5,0c-1.9,0-3.5,0.2-4.7,0.6c-1.2,0.4-2,1.1-2.5,1.9c-0.1,0.3-0.3,0.4-0.5,0.4
		c-0.2,0-0.3-0.1-0.4-0.3c-0.1-0.2-0.2-0.5-0.2-0.9l0-1.8V4.1c0-0.4,0-0.8,0.1-1c0-0.3,0.1-0.4,0.3-0.6c0.1-0.1,0.3-0.2,0.6-0.2
		c0.2,0,0.6,0,1,0l19.3-0.4l0.8,0h0.1c0.4,0,0.8,0,1,0.1C50.7,2,50.9,2.1,51,2.3c0.1,0.2,0.2,0.4,0.3,0.8c0.1,0.4,0.1,0.8,0.1,1.5
		v0.2v1.2c0,0.4-0.1,0.6-0.4,0.6c-0.1,0-0.2,0-0.3-0.1c-0.1-0.1-0.2-0.2-0.4-0.5c-0.5-0.6-1.3-1-2.4-1.3C46.7,4.4,45.2,4.3,43.4,4.3
		z"/>
	<path d="M66.9,17.2c-1.5,0-2.6,0.1-3.3,0.2c-0.7,0.1-1.3,0.3-1.7,0.6v9.6c0,1.1,0.3,1.9,0.9,2.3c0.6,0.4,1.7,0.7,3.3,0.7l3.7,0.1
		h0.3c1.4,0,2.7-0.3,3.9-0.8c1.2-0.5,2.2-1.3,3-2.2c0.3,0.2,0.5,0.5,0.5,0.8c0,0.6-0.1,1.2-0.4,1.7c-0.3,0.5-0.7,1-1.2,1.4
		c-0.5,0.4-1.1,0.7-1.7,1c-0.7,0.3-1.4,0.5-2.1,0.7c-0.2,0-0.4,0-0.6,0s-0.5,0-0.8,0c-0.3,0-0.5,0-0.7,0s-0.4,0-0.6,0l-3.6-0.1
		l-4.2-0.2l-1.3,0c-0.4,0-0.9,0-1.4,0c-0.5,0-0.8,0-0.9,0c-0.3,0-0.5-0.1-0.7-0.2c-0.2-0.1-0.3-0.3-0.3-0.5l0-0.5l0.1-0.4V4.9V4.5
		c0-0.6,0.1-1,0.2-1.3c0.1-0.3,0.4-0.6,0.8-0.7c0.4-0.2,0.9-0.3,1.5-0.3C60.2,2.1,61,2.1,62,2.1l3.8-0.1c0.1,0,0.4,0,1,0
		c0.5,0,1.1,0.1,1.7,0.1c0.7,0,1.5,0.1,2.3,0.1c0.9,0.1,1.6,0.1,2.1,0.2c0.5,0.1,0.9,0.2,1.2,0.4c0.3,0.2,0.4,0.5,0.5,0.9
		c0.1,0.4,0.1,0.9,0.1,1.5c0,0.9-0.2,1.3-0.6,1.3c-0.2,0-0.3,0-0.4-0.1c-0.1-0.1-0.4-0.2-0.9-0.4c-0.6-0.3-1.4-0.6-2.6-0.8
		c-1.2-0.3-2.4-0.4-3.8-0.6c-0.3,0-0.5,0-0.7,0c-0.2,0-0.4,0-0.6,0h-0.2h-1.3c-0.3,0-0.6,0-0.8,0.1c-0.2,0.1-0.4,0.2-0.5,0.3
		C62.1,5.1,62,5.3,62,5.6c0,0.3-0.1,0.6-0.1,1v7.2c0.4,0.5,0.9,0.8,1.7,0.9c0.7,0.2,1.9,0.2,3.5,0.2c0.7,0,1.4,0,2.1-0.1
		c0.8-0.1,1.8-0.2,3-0.4c0.1,0,0.3,0,0.5-0.1c0.2,0,0.3,0,0.4,0c0.4,0,0.7,0.1,0.8,0.3c0.1,0.2,0.2,0.6,0.2,1.3v0.2v1.2
		c0,0.2-0.1,0.4-0.2,0.5c-0.2,0.1-0.3,0.2-0.6,0.2c-0.1,0-0.2,0-0.4,0c-0.1,0-0.4-0.1-0.8-0.2c-0.7-0.2-1.5-0.3-2.4-0.4
		C68.9,17.2,67.9,17.2,66.9,17.2z"/>
	<path d="M96.3,23.3c0,0,0,0.1,0,0.1c0,0.1,0.1,0.1,0.1,0.3l0.2-0.4c0.1-0.2,0.3-0.5,0.6-1c0.3-0.5,0.6-1,1.1-1.7l0.4-0.7l9.9-16.8
		c0.2-0.3,0.4-0.6,0.6-0.9c0.2-0.2,0.3-0.4,0.5-0.5c0.2-0.1,0.4-0.2,0.6-0.2c0.2,0,0.5-0.1,0.8-0.1c0.6,0,1.1,0,1.3,0.1
		c0.2,0.1,0.3,0.3,0.3,0.6c0,0.2,0,0.3-0.1,0.5c-0.1,0.2-0.2,0.4-0.3,0.6L98,26.8l-0.4,0.5l-1.2,2.1l-0.6,1
		c-0.2,0.3-0.4,0.4-0.6,0.4c-0.1,0-0.2,0-0.3-0.1c-0.1-0.1-0.2-0.2-0.4-0.5c-0.1-0.2-0.3-0.6-0.5-1.1c-0.2-0.5-0.5-1.1-0.8-2
		c-0.2-0.5-0.4-1-0.6-1.4c-0.2-0.4-0.4-0.8-0.6-1.2c-0.1-0.3-0.2-0.5-0.3-0.6c-0.1-0.1-0.1-0.2-0.2-0.3L81.8,2.6l-0.1-0.2l-0.1-0.3
		c0,0,0-0.1,0-0.3V1.7c0-0.2,0.1-0.4,0.2-0.4c0.2-0.1,0.5-0.1,1-0.1h0.3l1,0.1c0.5,0,0.9,0.1,1.1,0.1c0.3,0,0.5,0.1,0.7,0.2
		c0.2,0.1,0.3,0.2,0.5,0.4s0.2,0.4,0.4,0.7l7.7,16.9c0.1,0.1,0.1,0.2,0.1,0.3c0,0.1,0.1,0.2,0.1,0.3c0.4,0.9,0.7,1.5,0.9,2.1
		S96.1,23,96.3,23.3z"/>
	<path d="M128.7,17.2c-1.5,0-2.6,0.1-3.3,0.2c-0.7,0.1-1.3,0.3-1.7,0.6v9.6c0,1.1,0.3,1.9,0.9,2.3c0.6,0.4,1.7,0.7,3.3,0.7l3.7,0.1
		h0.3c1.4,0,2.7-0.3,3.9-0.8c1.2-0.5,2.2-1.3,3-2.2c0.3,0.2,0.5,0.5,0.5,0.8c0,0.6-0.1,1.2-0.4,1.7c-0.3,0.5-0.7,1-1.2,1.4
		c-0.5,0.4-1.1,0.7-1.7,1c-0.7,0.3-1.4,0.5-2.1,0.7c-0.2,0-0.4,0-0.6,0s-0.5,0-0.8,0c-0.3,0-0.5,0-0.7,0s-0.4,0-0.6,0l-3.6-0.1
		l-4.2-0.2l-1.3,0c-0.4,0-0.9,0-1.4,0c-0.5,0-0.8,0-0.9,0c-0.3,0-0.5-0.1-0.7-0.2c-0.2-0.1-0.3-0.3-0.3-0.5l0-0.5l0.1-0.4V4.9V4.5
		c0-0.6,0.1-1,0.2-1.3c0.1-0.3,0.4-0.6,0.8-0.7c0.4-0.2,0.9-0.3,1.5-0.3c0.6-0.1,1.5-0.1,2.4-0.1l3.8-0.1c0.1,0,0.4,0,1,0
		c0.5,0,1.1,0.1,1.7,0.1c0.7,0,1.5,0.1,2.3,0.1c0.9,0.1,1.6,0.1,2.1,0.2c0.5,0.1,0.9,0.2,1.2,0.4c0.3,0.2,0.4,0.5,0.5,0.9
		c0.1,0.4,0.1,0.9,0.1,1.5c0,0.9-0.2,1.3-0.6,1.3c-0.2,0-0.3,0-0.4-0.1c-0.1-0.1-0.4-0.2-0.9-0.4c-0.6-0.3-1.4-0.6-2.6-0.8
		c-1.2-0.3-2.4-0.4-3.8-0.6c-0.3,0-0.5,0-0.7,0c-0.2,0-0.4,0-0.6,0h-0.2h-1.3c-0.3,0-0.6,0-0.8,0.1c-0.2,0.1-0.4,0.2-0.5,0.3
		c-0.1,0.1-0.2,0.3-0.2,0.6c0,0.3-0.1,0.6-0.1,1v7.2c0.4,0.5,0.9,0.8,1.7,0.9c0.7,0.2,1.9,0.2,3.5,0.2c0.7,0,1.4,0,2.1-0.1
		c0.8-0.1,1.8-0.2,3-0.4c0.1,0,0.3,0,0.5-0.1c0.2,0,0.3,0,0.4,0c0.4,0,0.7,0.1,0.8,0.3c0.1,0.2,0.2,0.6,0.2,1.3v0.2v1.2
		c0,0.2-0.1,0.4-0.2,0.5c-0.2,0.1-0.3,0.2-0.6,0.2c-0.1,0-0.2,0-0.4,0c-0.1,0-0.4-0.1-0.8-0.2c-0.7-0.2-1.5-0.3-2.4-0.4
		C130.6,17.2,129.7,17.2,128.7,17.2z"/>
	<path d="M150.1,8.5v23.2c0,0.2,0,0.4,0,0.6c0,0.1-0.1,0.3-0.2,0.3c-0.1,0.1-0.2,0.1-0.5,0.1c-0.2,0-0.5,0-0.9,0
		c-0.6,0-1-0.1-1.1-0.2c-0.1-0.1-0.2-0.5-0.2-1V4.7c0-0.4-0.1-0.7-0.2-0.9c-0.1-0.2-0.3-0.4-0.7-0.6c-0.3-0.2-0.5-0.4-0.5-0.7
		c0-0.3,0.4-0.5,1.1-0.5h0.2c0.3,0,0.6,0,0.8,0c0.2,0,0.4,0,0.4,0c0.5,0,0.8,0,1.1,0.1c0.3,0,0.4,0,0.5,0l1,0h0.5l16.9,20.5L168,2.3
		c0-0.2,0-0.3,0.1-0.3c0,0,0.1,0,0.3,0h2.3c0.1,0,0.2,0.1,0.2,0.1c0,0,0.1,0.1,0.1,0.2v28l0,0.5c0,0.5,0,0.9-0.1,1.1
		c-0.1,0.2-0.3,0.3-0.5,0.3c-0.2,0-0.4,0-0.5-0.1c-0.1-0.1-0.3-0.3-0.6-0.6L150.1,8.5z"/>
	<path d="M213.4,3.3c-0.2,0.5-0.3,0.8-0.4,1c-0.1,0.2-0.2,0.5-0.5,0.8c-1.4-1-2.9-1.6-4.6-1.6c-1.1,0-2.1,0.3-2.8,0.8
		s-1.1,1.3-1.1,2.2c0,0.4,0,0.9,0.1,1.3c0.1,0.4,0.3,0.9,0.5,1.5c0.3,0.6,0.6,1.3,1.1,2.1c0.4,0.8,1,1.8,1.7,3
		c0.5,0.9,0.9,1.7,1.3,2.4c0.3,0.7,0.6,1.5,0.9,2.1c0.2,0.7,0.4,1.3,0.5,2c0.1,0.7,0.1,1.3,0.1,2c0,1.4-0.2,2.7-0.7,3.8
		c-0.5,1.2-1.1,2.2-1.9,3s-1.8,1.5-3,1.9c-1.2,0.5-2.5,0.7-3.9,0.7c-1,0-1.8-0.1-2.6-0.3c-0.8-0.2-1.5-0.5-2.1-0.9
		c-0.6-0.4-1-0.9-1.4-1.4c-0.3-0.6-0.5-1.2-0.5-1.8c0-0.5,0.2-1,0.5-1.5s0.9-0.9,1.6-1.2c0.2-0.1,0.3-0.1,0.4-0.1
		c0.2,0,0.3,0.1,0.3,0.3c0,0,0,0.1,0,0.1c0,0.1,0,0.2,0,0.4v0.5c0,1.1,0.4,2,1.1,2.7c0.7,0.6,1.7,1,3,1c0.8,0,1.5-0.1,2.2-0.4
		c0.7-0.3,1.2-0.6,1.7-1.1c0.5-0.5,0.9-1,1.1-1.6c0.3-0.6,0.4-1.3,0.4-2.1c0-0.5,0-1-0.1-1.4c-0.1-0.4-0.2-0.9-0.4-1.5
		c-0.2-0.5-0.6-1.2-1-2c-0.4-0.8-1-1.7-1.7-2.9c-2-3.3-3-6.1-3-8.3c0-1.1,0.2-2.2,0.6-3.1c0.4-0.9,0.9-1.8,1.6-2.5s1.5-1.2,2.5-1.7
		c1-0.4,2-0.6,3.2-0.7c0.9-0.1,1.6-0.1,2.1-0.1c0.5,0,0.9,0,1.1,0c0.2,0,0.6,0,1.1-0.1c0.1,0,0.3,0,0.4,0c0.1,0,0.2,0,0.2,0
		c0.2,0,0.4,0.1,0.6,0.2s0.2,0.3,0.2,0.4c0,0.1-0.1,0.3-0.2,0.7C213.7,2.4,213.5,2.8,213.4,3.3z"/>
	<path d="M226,7.7v24c0,0.4,0,0.6-0.1,0.7c-0.1,0.1-0.3,0.2-0.5,0.2h-1.2c-0.4,0-0.6,0-0.8,0c-0.2,0-0.3-0.1-0.3-0.2
		c-0.1-0.1-0.1-0.3-0.1-0.8v-28c0-0.5-0.3-0.9-0.9-1.2c-0.2-0.2-0.4-0.3-0.4-0.5c0-0.4,0.5-0.6,1.4-0.6h4c0.2,0.1,0.4,0.1,0.5,0.2
		c0.1,0.1,0.3,0.3,0.5,0.6l0.3,0.4l12.6,16.8l12.9-16.6c0.3-0.4,0.5-0.6,0.7-0.7c0.2-0.1,0.5-0.1,0.9-0.1h2.1c0.5,0,0.8,0.3,0.8,0.8
		v28.9c0,0.5-0.1,0.7-0.2,0.9c-0.2,0.1-0.5,0.2-1,0.2h-1.4h-0.2c-0.5,0-0.9,0-1.1,0c-0.3,0-0.5-0.1-0.6-0.2
		c-0.1-0.1-0.2-0.3-0.3-0.5s-0.1-0.5-0.1-0.9V8.9l-13,17.1l-0.1,0.1c-0.2,0.2-0.3,0.3-0.4,0.3c-0.1,0-0.2-0.1-0.4-0.3l-0.2-0.2
		L226,7.7z"/>
	<path d="M266.9,4.6V4.1c0-1.2,0.1-2.1,0.4-2.5c0.3-0.4,0.9-0.6,1.7-0.6c0.6,0,1.1,0,1.4,0.1c0.3,0.1,0.6,0.2,0.8,0.3
		c0.2,0.2,0.3,0.4,0.4,0.7c0.1,0.3,0.1,0.7,0.1,1.2v27.9c0,0.7-0.1,1.1-0.4,1.4c-0.3,0.2-0.8,0.3-1.6,0.3h-1h-0.2
		c-0.7,0-1.2-0.1-1.4-0.3c-0.2-0.2-0.3-0.8-0.3-1.6V4.6z"/>
	<path d="M293.6,4.3c-0.3,0-0.6,0-0.9,0.1c-0.3,0.1-0.6,0.1-1,0.2v26.3l0,0.5c0,0.8-0.1,1.2-0.4,1.2h-3.8c-0.3,0-0.5-0.4-0.5-1.3
		V4.5c-0.3-0.1-0.5-0.1-0.6-0.1c-0.1,0-0.3,0-0.5,0c-1.9,0-3.5,0.2-4.7,0.6c-1.2,0.4-2,1.1-2.5,1.9c-0.1,0.3-0.3,0.4-0.5,0.4
		c-0.2,0-0.3-0.1-0.4-0.3c-0.1-0.2-0.2-0.5-0.2-0.9l0-1.8V4.1c0-0.4,0-0.8,0.1-1c0-0.3,0.1-0.4,0.3-0.6c0.1-0.1,0.3-0.2,0.6-0.2
		c0.2,0,0.6,0,1,0l19.3-0.4l0.8,0h0.1c0.4,0,0.8,0,1,0.1c0.3,0.1,0.4,0.2,0.6,0.3c0.1,0.2,0.2,0.4,0.3,0.8c0.1,0.4,0.1,0.8,0.1,1.5
		v0.2v1.2c0,0.4-0.1,0.6-0.4,0.6c-0.1,0-0.2,0-0.3-0.1c-0.1-0.1-0.2-0.2-0.4-0.5c-0.5-0.6-1.3-1-2.4-1.3
		C296.9,4.4,295.4,4.3,293.6,4.3z"/>
	<path d="M311.9,15l17.7-0.6c0.4,0,0.7,0,1-0.1c0.2-0.1,0.4-0.2,0.6-0.3V2.8c0-0.6,0.2-1,0.5-1.3c0.3-0.3,0.8-0.4,1.6-0.4l0.6,0
		c0.8,0.1,1.4,0.2,1.7,0.4c0.3,0.2,0.4,0.6,0.4,1.3v24.8v1.8c0,0.7-0.1,1.2-0.1,1.7c0,0.4-0.1,0.7-0.2,1c-0.1,0.2-0.2,0.4-0.4,0.5
		c-0.2,0.1-0.4,0.1-0.6,0.2c-0.2,0-0.4,0-0.6,0c-0.2,0-0.4,0-0.7,0c-0.7,0-1.1,0-1.4,0c-0.2,0-0.4-0.1-0.5-0.2
		c-0.1-0.1-0.2-0.3-0.2-0.5c-0.1-0.2-0.1-0.5-0.1-1.1V17.5c-0.3-0.2-0.5-0.4-0.7-0.5c-0.2-0.1-0.5-0.1-0.9-0.1h-0.1l-16.1,0.7
		c-0.5,0-1,0.1-1.4,0.4v12.6c0,0.9-0.2,1.5-0.7,1.8c-0.4,0.3-1.3,0.5-2.5,0.5c-0.7,0-1.1-0.1-1.2-0.2c-0.2-0.1-0.2-0.4-0.2-1v-29
		c0-0.4,0.1-0.6,0.3-0.8c0.2-0.1,0.6-0.2,1.2-0.3h1c0.9,0,1.5,0.1,1.7,0.3c0.3,0.2,0.4,0.6,0.4,1.3V15z"/>
	<path d="M374.3,4.3c-0.3,0-0.6,0-0.9,0.1c-0.3,0.1-0.6,0.1-1,0.2v26.3l0,0.5c0,0.8-0.1,1.2-0.4,1.2h-3.8c-0.3,0-0.5-0.4-0.5-1.3
		V4.5c-0.3-0.1-0.5-0.1-0.6-0.1c-0.1,0-0.3,0-0.5,0c-1.9,0-3.5,0.2-4.7,0.6c-1.2,0.4-2,1.1-2.5,1.9c-0.1,0.3-0.3,0.4-0.5,0.4
		c-0.2,0-0.3-0.1-0.4-0.3c-0.1-0.2-0.2-0.5-0.2-0.9l0-1.8V4.1c0-0.4,0-0.8,0.1-1c0-0.3,0.1-0.4,0.3-0.6c0.1-0.1,0.3-0.2,0.6-0.2
		c0.2,0,0.6,0,1,0l19.3-0.4l0.8,0h0.1c0.4,0,0.8,0,1,0.1c0.3,0.1,0.4,0.2,0.6,0.3c0.1,0.2,0.2,0.4,0.3,0.8c0.1,0.4,0.1,0.8,0.1,1.5
		v0.2v1.2c0,0.4-0.1,0.6-0.4,0.6c-0.1,0-0.2,0-0.3-0.1c-0.1-0.1-0.2-0.2-0.4-0.5c-0.5-0.6-1.3-1-2.4-1.3
		C377.6,4.4,376.1,4.3,374.3,4.3z"/>
	<path d="M397.7,17.2c-1.5,0-2.6,0.1-3.3,0.2c-0.7,0.1-1.3,0.3-1.7,0.6v9.6c0,1.1,0.3,1.9,0.9,2.3c0.6,0.4,1.7,0.7,3.3,0.7l3.7,0.1
		h0.3c1.4,0,2.7-0.3,3.9-0.8c1.2-0.5,2.2-1.3,3-2.2c0.3,0.2,0.5,0.5,0.5,0.8c0,0.6-0.1,1.2-0.4,1.7s-0.7,1-1.2,1.4
		c-0.5,0.4-1.1,0.7-1.7,1c-0.7,0.3-1.4,0.5-2.1,0.7c-0.2,0-0.4,0-0.6,0c-0.3,0-0.5,0-0.8,0c-0.3,0-0.5,0-0.7,0s-0.4,0-0.6,0
		l-3.6-0.1l-4.2-0.2l-1.3,0c-0.4,0-0.9,0-1.4,0c-0.5,0-0.8,0-0.9,0c-0.3,0-0.5-0.1-0.7-0.2c-0.2-0.1-0.3-0.3-0.3-0.5l0-0.5l0.1-0.4
		V4.9V4.5c0-0.6,0.1-1,0.2-1.3c0.1-0.3,0.4-0.6,0.8-0.7c0.4-0.2,0.9-0.3,1.5-0.3c0.6-0.1,1.5-0.1,2.4-0.1l3.8-0.1c0.1,0,0.4,0,1,0
		c0.5,0,1.1,0.1,1.7,0.1c0.7,0,1.5,0.1,2.3,0.1c0.9,0.1,1.6,0.1,2.1,0.2c0.5,0.1,0.9,0.2,1.2,0.4c0.3,0.2,0.4,0.5,0.5,0.9
		c0.1,0.4,0.1,0.9,0.1,1.5c0,0.9-0.2,1.3-0.6,1.3c-0.2,0-0.3,0-0.4-0.1c-0.1-0.1-0.4-0.2-0.9-0.4c-0.6-0.3-1.4-0.6-2.6-0.8
		c-1.2-0.3-2.4-0.4-3.8-0.6c-0.3,0-0.5,0-0.7,0s-0.4,0-0.6,0h-0.2h-1.3c-0.3,0-0.6,0-0.8,0.1c-0.2,0.1-0.4,0.2-0.5,0.3
		c-0.1,0.1-0.2,0.3-0.2,0.6c0,0.3-0.1,0.6-0.1,1v7.2c0.4,0.5,0.9,0.8,1.7,0.9c0.7,0.2,1.9,0.2,3.5,0.2c0.7,0,1.4,0,2.1-0.1
		c0.8-0.1,1.8-0.2,3-0.4c0.1,0,0.3,0,0.5-0.1c0.2,0,0.3,0,0.4,0c0.4,0,0.7,0.1,0.8,0.3c0.1,0.2,0.2,0.6,0.2,1.3v0.2v1.2
		c0,0.2-0.1,0.4-0.2,0.5c-0.2,0.1-0.3,0.2-0.6,0.2c-0.1,0-0.2,0-0.4,0c-0.1,0-0.4-0.1-0.8-0.2c-0.7-0.2-1.5-0.3-2.4-0.4
		C399.7,17.2,398.8,17.2,397.7,17.2z"/>
	<path d="M426.7,4.8c-0.2-0.4-0.4-0.7-0.6-1c-0.2-0.3-0.4-0.5-0.5-0.6l-0.8-0.4c-0.1-0.1-0.2-0.1-0.3-0.2c-0.1-0.1-0.1-0.2-0.1-0.3
		c0-0.2,0.1-0.3,0.2-0.4s0.3-0.2,0.5-0.2c0,0,0.1,0,0.1,0c0.1,0,0.2,0,0.3,0l2.3,0.2l2.4,0.2c0.4,0.1,0.7,0.1,0.9,0.2
		s0.3,0.2,0.5,0.4l0.5,0.8l17.6,27.5c0.2,0.4,0.4,0.6,0.4,0.8c0.1,0.1,0.1,0.3,0.1,0.5c0,0.1,0,0.2-0.1,0.3c0,0.1-0.1,0.1-0.3,0.2
		c-0.1,0-0.4,0.1-0.6,0.1c-0.3,0-0.6,0-1.1,0h-0.5l-2,0c-0.2,0-0.3,0-0.5,0c-0.1,0-0.2-0.1-0.3-0.1s-0.2-0.2-0.3-0.4
		s-0.3-0.4-0.4-0.6l-5.5-8.5l-19.1,1.6l-3.7,6.9l-0.3,0.4c-0.2,0.3-0.4,0.5-0.4,0.5c-0.1,0.1-0.3,0.1-0.6,0.2h-0.9
		c-0.5,0-0.8,0-1-0.1c-0.2-0.1-0.3-0.2-0.3-0.4c0-0.1,0-0.1,0-0.2c0-0.1,0.1-0.2,0.1-0.2l0.4-0.7L426.7,4.8z M420.8,22.1l16.2-1.4
		l-8.4-13.2L420.8,22.1z"/>
	<path d="M460.2,7.7v24c0,0.4,0,0.6-0.1,0.7c-0.1,0.1-0.3,0.2-0.5,0.2h-1.2c-0.4,0-0.6,0-0.8,0c-0.2,0-0.3-0.1-0.3-0.2
		c-0.1-0.1-0.1-0.3-0.1-0.8v-28c0-0.5-0.3-0.9-0.9-1.2c-0.2-0.2-0.4-0.3-0.4-0.5c0-0.4,0.5-0.6,1.4-0.6h4c0.2,0.1,0.4,0.1,0.5,0.2
		s0.3,0.3,0.5,0.6l0.3,0.4l12.6,16.8L488,2.7c0.3-0.4,0.5-0.6,0.7-0.7c0.2-0.1,0.5-0.1,0.9-0.1h2.1c0.5,0,0.8,0.3,0.8,0.8v28.9
		c0,0.5-0.1,0.7-0.2,0.9c-0.2,0.1-0.5,0.2-1,0.2h-1.4h-0.2c-0.5,0-0.9,0-1.1,0c-0.3,0-0.5-0.1-0.6-0.2c-0.1-0.1-0.2-0.3-0.3-0.5
		s-0.1-0.5-0.1-0.9V8.9l-13,17.1l-0.1,0.1c-0.2,0.2-0.3,0.3-0.4,0.3c-0.1,0-0.2-0.1-0.4-0.3l-0.2-0.2L460.2,7.7z"/>
	<path d="M512.9,4.8c-0.2-0.4-0.4-0.7-0.6-1c-0.2-0.3-0.4-0.5-0.5-0.6l-0.8-0.4c-0.1-0.1-0.2-0.1-0.3-0.2c-0.1-0.1-0.1-0.2-0.1-0.3
		c0-0.2,0.1-0.3,0.2-0.4s0.3-0.2,0.5-0.2c0,0,0.1,0,0.1,0c0.1,0,0.2,0,0.3,0l2.3,0.2l2.4,0.2c0.4,0.1,0.7,0.1,0.9,0.2
		s0.3,0.2,0.5,0.4l0.5,0.8l17.6,27.5c0.2,0.4,0.4,0.6,0.4,0.8c0.1,0.1,0.1,0.3,0.1,0.5c0,0.1,0,0.2-0.1,0.3c0,0.1-0.1,0.1-0.3,0.2
		c-0.1,0-0.4,0.1-0.6,0.1c-0.3,0-0.6,0-1.1,0h-0.5l-2,0c-0.2,0-0.3,0-0.5,0c-0.1,0-0.2-0.1-0.3-0.1s-0.2-0.2-0.3-0.4
		s-0.3-0.4-0.4-0.6l-5.5-8.5l-19.1,1.6l-3.7,6.9l-0.3,0.4c-0.2,0.3-0.4,0.5-0.4,0.5c-0.1,0.1-0.3,0.1-0.6,0.2h-0.9
		c-0.5,0-0.8,0-1-0.1c-0.2-0.1-0.3-0.2-0.3-0.4c0-0.1,0-0.1,0-0.2s0.1-0.2,0.1-0.2l0.4-0.7L512.9,4.8z M506.9,22.1l16.2-1.4
		l-8.4-13.2L506.9,22.1z"/>
	<path d="M546.5,13.3v17.8v0.4c0,0.5-0.1,0.8-0.2,1c-0.1,0.1-0.3,0.2-0.6,0.2h-0.1c-0.3,0-0.5,0-0.7,0c-0.2,0-0.3,0-0.4,0
		c-0.6,0-1.1,0-1.4-0.1c-0.3,0-0.6-0.1-0.8-0.3c-0.2-0.2-0.3-0.4-0.3-0.7c0-0.3-0.1-0.8-0.1-1.3V2.5c0-0.4,0.1-0.7,0.2-0.8
		c0.1-0.1,0.4-0.2,0.8-0.2h2.5c0.4,0,0.7,0.1,0.8,0.2c0.1,0.2,0.2,0.5,0.2,0.9v8.5L557,1.5c0.2,0,0.3,0,0.4-0.1c0.1,0,0.2,0,0.3,0
		c0.1,0,0.3,0,0.4,0c0.2,0,0.4,0,0.6,0c0.3,0,0.5,0,0.7,0c0.2,0,0.3,0,0.4,0c0.8,0,1.2,0.2,1.2,0.6c0,0.2-0.1,0.4-0.4,0.6l-0.3,0.3
		l-9.1,8c0.8,0.3,1.5,0.7,2.1,1.3c0.6,0.6,1.1,1.4,1.6,2.3c0.4,1,0.8,2.1,1.1,3.5c0.3,1.4,0.5,3,0.7,4.9c0.1,1.4,0.3,2.6,0.4,3.6
		c0.2,0.9,0.4,1.7,0.6,2.2c0.3,0.5,0.6,0.9,0.9,1.1c0.4,0.2,0.8,0.3,1.4,0.3c0.4,0,0.7,0,1-0.1c0.3-0.1,0.6-0.3,1-0.5
		c0.3-0.2,0.5-0.3,0.6-0.4c0.1-0.1,0.3-0.1,0.5-0.1c0.3,0,0.5,0.1,0.7,0.2c0.2,0.2,0.3,0.4,0.3,0.6c0,0.2-0.1,0.4-0.3,0.7
		c-0.2,0.2-0.4,0.5-0.7,0.7c-1.2,0.9-2.5,1.4-3.9,1.4c-0.9,0-1.7-0.2-2.4-0.6s-1.5-1-2.1-1.7c-0.6-0.7-1.2-1.6-1.6-2.5
		c-0.4-1-0.8-2.1-0.9-3.2l-0.6-3.9c-0.2-1.3-0.5-2.5-1-3.7c-0.5-1.2-1-2.1-1.5-2.7c-0.6-0.6-1.3-1-2.1-1H546.5z"/>
	<path d="M580.6,17.2c-1.5,0-2.6,0.1-3.3,0.2c-0.7,0.1-1.3,0.3-1.7,0.6v9.6c0,1.1,0.3,1.9,0.9,2.3c0.6,0.4,1.7,0.7,3.3,0.7l3.7,0.1
		h0.3c1.4,0,2.7-0.3,3.9-0.8c1.2-0.5,2.2-1.3,3-2.2c0.3,0.2,0.5,0.5,0.5,0.8c0,0.6-0.1,1.2-0.4,1.7c-0.3,0.5-0.7,1-1.2,1.4
		c-0.5,0.4-1.1,0.7-1.7,1c-0.7,0.3-1.4,0.5-2.1,0.7c-0.2,0-0.4,0-0.6,0c-0.3,0-0.5,0-0.8,0c-0.3,0-0.5,0-0.7,0s-0.4,0-0.6,0
		l-3.6-0.1l-4.2-0.2l-1.3,0c-0.4,0-0.9,0-1.4,0c-0.5,0-0.8,0-0.9,0c-0.3,0-0.5-0.1-0.7-0.2c-0.2-0.1-0.3-0.3-0.3-0.5l0-0.5l0.1-0.4
		V4.9V4.5c0-0.6,0.1-1,0.2-1.3s0.4-0.6,0.8-0.7c0.4-0.2,0.9-0.3,1.5-0.3c0.6-0.1,1.5-0.1,2.4-0.1l3.8-0.1c0.1,0,0.4,0,1,0
		c0.5,0,1.1,0.1,1.7,0.1c0.7,0,1.5,0.1,2.3,0.1c0.9,0.1,1.6,0.1,2.1,0.2c0.5,0.1,0.9,0.2,1.2,0.4c0.3,0.2,0.4,0.5,0.5,0.9
		c0.1,0.4,0.1,0.9,0.1,1.5c0,0.9-0.2,1.3-0.6,1.3c-0.2,0-0.3,0-0.4-0.1c-0.1-0.1-0.4-0.2-0.9-0.4c-0.6-0.3-1.4-0.6-2.6-0.8
		c-1.2-0.3-2.4-0.4-3.8-0.6c-0.3,0-0.5,0-0.7,0c-0.2,0-0.4,0-0.6,0h-0.2h-1.3c-0.3,0-0.6,0-0.8,0.1c-0.2,0.1-0.4,0.2-0.5,0.3
		c-0.1,0.1-0.2,0.3-0.2,0.6c0,0.3-0.1,0.6-0.1,1v7.2c0.4,0.5,0.9,0.8,1.7,0.9c0.7,0.2,1.9,0.2,3.5,0.2c0.7,0,1.4,0,2.1-0.1
		c0.8-0.1,1.8-0.2,3-0.4c0.1,0,0.3,0,0.5-0.1c0.2,0,0.3,0,0.4,0c0.4,0,0.7,0.1,0.8,0.3c0.1,0.2,0.2,0.6,0.2,1.3v0.2v1.2
		c0,0.2-0.1,0.4-0.2,0.5c-0.2,0.1-0.3,0.2-0.6,0.2c-0.1,0-0.2,0-0.4,0c-0.1,0-0.4-0.1-0.8-0.2c-0.7-0.2-1.5-0.3-2.4-0.4
		C582.5,17.2,581.6,17.2,580.6,17.2z"/>
	<path d="M615.4,8.4c0,1.4-0.4,2.6-1.2,3.6c-0.8,0.9-2,1.7-3.6,2.3c0.6,0.1,1,0.3,1.5,0.4c0.4,0.2,0.8,0.4,1.1,0.6
		c0.3,0.2,0.6,0.5,0.9,0.9c0.3,0.3,0.6,0.8,0.9,1.2c1.1,1.6,1.7,3.3,2,5c0,0.3,0.1,0.8,0.2,1.5c0.1,0.7,0.2,1.7,0.2,2.9
		c0.2,2.5,0.9,3.8,2.2,3.8c0.4,0,0.8-0.1,1.1-0.2c0.1-0.1,0.2-0.1,0.3-0.2c0.1-0.1,0.1-0.1,0.2-0.1c0.1,0,0.2,0,0.4,0
		c0.5,0,0.7,0.3,0.7,0.8c0,0.5-0.3,1-0.9,1.3c-0.6,0.3-1.4,0.5-2.5,0.5c-1.4,0-2.6-0.4-3.6-1.2c-0.4-0.3-0.7-0.7-1-1.1
		c-0.3-0.4-0.5-0.8-0.7-1.2c-0.2-0.5-0.4-1-0.5-1.6c-0.2-0.6-0.3-1.3-0.4-2.2c-0.2-1.3-0.4-2.3-0.6-3.1c-0.2-0.8-0.3-1.5-0.5-2
		c-0.2-0.5-0.4-1-0.6-1.4c-0.2-0.4-0.5-0.8-0.8-1.2c-0.4-0.5-0.8-0.9-1.4-1.2c-0.6-0.3-1.2-0.5-1.8-0.5l-1-0.1
		c-0.4-0.1-0.6-0.2-0.6-0.5c0-0.1,0.1-0.2,0.2-0.4l1.5-0.7c1-0.5,1.9-1.3,2.5-2.4c0.6-1.1,1-2.3,1-3.6c0-1.5-0.4-2.7-1.3-3.6
		c-0.9-0.9-2.1-1.3-3.7-1.3c-0.7,0-1.2,0.2-1.4,0.4c-0.2,0.2-0.4,0.7-0.4,1.3v26.6c-0.1,0.2-0.1,0.4-0.1,0.4s-0.1,0.2-0.1,0.4h-3.7
		c-0.4,0-0.6,0-0.7-0.1c-0.1-0.1-0.1-0.4-0.2-0.8v-0.5V3.9c-0.1-0.2-0.2-0.4-0.3-0.4c-0.1-0.1-0.2-0.2-0.3-0.3L598,3
		c-0.2-0.1-0.3-0.3-0.3-0.5c0-0.4,0.3-0.6,0.9-0.6h0.6c0.5,0,0.8,0,1,0s0.3,0,0.4,0h0.1c0.2,0,0.4,0,0.5,0s0.3,0,0.6,0l0.9,0
		c0.6-0.1,1.1-0.1,1.5-0.1c0.4,0,0.9-0.1,1.3-0.1C612.1,1.7,615.4,3.9,615.4,8.4z"/>
</g>
</svg>
